<svg xmlns="http://www.w3.org/2000/svg" viewBox="0 0 45.35 68.03" width="45" height="68"><defs><style>.cls-1{fill:#fff}</style></defs><g id="Layer_2" data-name="Layer 2"><g id="Layer_1-2" data-name="Layer 1"><path class="cls-1" d="M45.35 0H0v68.03h45.35V0z"/><path d="M44.7.7v66.63H.66V.7H44.7"/><path class="cls-1" d="M2.76 2.77h39.88v18.67H2.76zM2.76 23.51h39.88v34.17H2.76zM2.76 65.26v-5.49h8.01v1.29H5.98v.78h4.05v1.28H5.98v.86h4.98v1.28h-8.2zM17.76 61.37a.62.62 0 0 0-.47-.37 2.86 2.86 0 0 0-.83-.1c-.7 0-1 .12-1 .32 0 .81 5.65.3 5.65 2.3 0 1.27-1.9 1.89-4.6 1.89s-4.28-.85-4.35-1.84h3.08a.77.77 0 0 0 .54.43 2.85 2.85 0 0 0 .91.14c.8 0 1.34-.14 1.34-.4 0-.83-5.65-.26-5.65-2.35 0-1.17 1.8-1.75 4.26-1.75 2.72 0 4 .77 4.2 1.73zM25.9 62.15h1.27c1 0 1.53-.14 1.53-.52s-.55-.57-1.3-.57h-1.5zm0 1.2v1.91h-3.22v-5.48h4.64c3.27 0 4.35.5 4.35 1.56 0 .64-.5 1.16-1.65 1.35 1 .21 1.66.34 1.66 1.44 0 .72 0 1 .34 1v.17h-3.26a2.12 2.12 0 0 1-.16-1c0-.72-.22-.95-1.72-.95zM36.86 61.06V62h1.34c.64 0 1.11-.17 1.11-.48s-.64-.44-1.31-.44zm0 1.91v1h1.4c.8 0 1.4-.09 1.4-.5s-.75-.47-1.78-.47zm-3.22 2.29v-5.48h4.7c2.21 0 4 .29 4 1.38 0 .56-.65 1-1.28 1.19 1.07.15 1.63.67 1.63 1.25 0 1.23-1.67 1.66-4.22 1.66z"/><path d="M3.85 11.07V4.85h2.5v1H4.81v1.49h1.42v.95H4.81v1.82H6.4v1zM6.65 4.85h1l.71 4.52.8-4.52h.94l-1.2 6.22H7.78zM10.54 11.07V4.85H13v1h-1.5v1.49h1.42v.95H11.5v1.82h1.59v1zM14.64 11.07h-1V4.85h1.77a.91.91 0 0 1 .78.41 2.15 2.15 0 0 1 .29 1.22 2.31 2.31 0 0 1-.2 1 .87.87 0 0 1-.65.52l.21.05a.59.59 0 0 1 .28.15 1.13 1.13 0 0 1 .24.36 1.91 1.91 0 0 1 .1.66v1.49a1.4 1.4 0 0 0 .06.34h-.94a1.72 1.72 0 0 1-.1-.6v-.59-.52a1.46 1.46 0 0 0-.06-.44.69.69 0 0 0-.2-.3.72.72 0 0 0-.42-.11h-.25zm0-3.53h.43a.32.32 0 0 0 .23-.09.6.6 0 0 0 .16-.22 2.17 2.17 0 0 0 .08-.3v-.31a1.18 1.18 0 0 0-.11-.62.44.44 0 0 0-.36-.19h-.43zM18 8.91l-1.2-4.06h1l.68 2.63.73-2.63h1l-1.28 4.06v2.16H18zM22.19 11.17a1.37 1.37 0 0 1-.91-.27 1.51 1.51 0 0 1-.47-.72 3.58 3.58 0 0 1-.17-1V7.99v-1.2a3.52 3.52 0 0 1 .17-1 1.53 1.53 0 0 1 .47-.79 1.62 1.62 0 0 1 1.82 0 1.53 1.53 0 0 1 .47.71 3.89 3.89 0 0 1 .17 1V9.1a4 4 0 0 1-.17 1 1.51 1.51 0 0 1-.47.72 1.37 1.37 0 0 1-.91.35zm0-.93a.41.41 0 0 0 .32-.13 1 1 0 0 0 .19-.41 4 4 0 0 0 .08-.7V8 7a4 4 0 0 0-.08-.71 1 1 0 0 0-.19-.41.42.42 0 0 0-.32-.14.4.4 0 0 0-.32.14.87.87 0 0 0-.19.41 4 4 0 0 0-.08.71v2a4 4 0 0 0 .08.71.92.92 0 0 0 .19.41.39.39 0 0 0 .32.12zM24.53 11.07V4.85h1.29L27 9.16V4.85h1v6.22h-1.31l-1.25-4.55v4.55zM28.75 11.07V4.85h2.5v1h-1.54v1.49h1.42v.95h-1.42v1.82h1.59v1zM33.23 6a3.55 3.55 0 0 0 .47-.4 2.14 2.14 0 0 0 .39-.53h.85v6H34V6.44a3.06 3.06 0 0 1-.36.36 3 3 0 0 1-.39.31zM37.14 5a1.29 1.29 0 0 1 .66.15 1 1 0 0 1 .39.52 4 4 0 0 1 .19.95V9.34a3.71 3.71 0 0 1-.16 1 1.41 1.41 0 0 1-.39.63 1.22 1.22 0 0 1-1.4 0 1.32 1.32 0 0 1-.38-.63 3.71 3.71 0 0 1-.16-1V8.06 6.62a3.56 3.56 0 0 1 .18-.95 1 1 0 0 1 .39-.52 1.29 1.29 0 0 1 .68-.15zm0 .88a.27.27 0 0 0-.22.08.66.66 0 0 0-.11.33 4.81 4.81 0 0 0-.05.66v2.22a3.94 3.94 0 0 0 0 .68.66.66 0 0 0 .11.33.27.27 0 0 0 .21.09.26.26 0 0 0 .21-.09.76.76 0 0 0 .12-.33 5.31 5.31 0 0 0 .05-.68V8.06 6.93a5.13 5.13 0 0 0 0-.66.76.76 0 0 0-.12-.33.26.26 0 0 0-.2-.08zM39.79 6.14h.7v1.7h1.07v1h-1.07v1.69h-.7V8.8h-1.08v-1h1.08zM24.77 49.2h-1.41v.8h1.41v1.37h.8V50H27v-.8h-1.43v-1.37h-.8zm-2.25-.34c0-2.73-1.47-4.35-3.9-4.35-3.29 0-4.1 2.24-4.1 4.35 0 2.57 1.29 4.34 4 4.34s4-1.77 4-4.34M8.75 31.51l19.9-5.93 2 6.28-10 3 .82 2.57 9.21-2.74 2 6.29-9.2 2.73.86 2.71 10.29-3.06 2 6.28-20.22 6-7.66-24.13m.76 15.89A6.62 6.62 0 0 0 12 46.21v6.58h1.87v-8.24H12a6.61 6.61 0 0 1-2.52 1.26v1.59"/><path d="M16.24 48.78c0-2.76 1.11-3.4 2.36-3.39 1.41 0 2.2 1 2.19 3.47 0 1.5-.41 3.35-2.21 3.34s-2.35-1.41-2.34-3.42M7 13.14v1H5.9v5.17h-1v-5.14H3.87v-1zM8.94 19.45a1.37 1.37 0 0 1-.94-.27 1.44 1.44 0 0 1-.47-.72 3.58 3.58 0 0 1-.17-1v-1.19-1.19a3.51 3.51 0 0 1 .17-1 1.44 1.44 0 0 1 .47-.77 1.37 1.37 0 0 1 .94-.31 1.37 1.37 0 0 1 .91.27 1.51 1.51 0 0 1 .47.72 3.88 3.88 0 0 1 .17 1v2.38a4 4 0 0 1-.17 1 1.51 1.51 0 0 1-.47.72 1.37 1.37 0 0 1-.91.36zm0-.93a.41.41 0 0 0 .32-.13 1 1 0 0 0 .19-.39 4 4 0 0 0 .08-.71v-1-1a4 4 0 0 0-.08-.71 1 1 0 0 0-.19-.41.41.41 0 0 0-.32-.17.39.39 0 0 0-.32.13.92.92 0 0 0-.19.41 4 4 0 0 0-.08.71v2a4 4 0 0 0 .08.71.92.92 0 0 0 .19.41.39.39 0 0 0 .32.15zM11.3 13.14h1.59a1.25 1.25 0 0 1 .76.21 1.34 1.34 0 0 1 .46.6 3.87 3.87 0 0 1 .22 1c0 .38.05.81.05 1.29V17.48a4.16 4.16 0 0 1-.12.69 1.81 1.81 0 0 1-.25.6 1.35 1.35 0 0 1-.45.44 1.27 1.27 0 0 1-.68.16H11.3zm.95 5.25h.47a.56.56 0 0 0 .35-.11.81.81 0 0 0 .21-.38 3.3 3.3 0 0 0 .1-.66v-1-.81a3.31 3.31 0 0 0-.07-.68 1.18 1.18 0 0 0-.2-.48.47.47 0 0 0-.38-.17h-.5zM16.68 19.45a1.39 1.39 0 0 1-.91-.27 1.59 1.59 0 0 1-.47-.72 4.43 4.43 0 0 1-.17-1v-1.19-1.19a4.34 4.34 0 0 1 .17-1 1.59 1.59 0 0 1 .47-.72 1.39 1.39 0 0 1 .91-.27 1.4 1.4 0 0 1 .92.27 1.59 1.59 0 0 1 .47.72 4.34 4.34 0 0 1 .17 1v2.38a4.43 4.43 0 0 1-.17 1 1.59 1.59 0 0 1-.47.72 1.4 1.4 0 0 1-.92.27zm0-.93a.42.42 0 0 0 .33-.13.92.92 0 0 0 .18-.41 4 4 0 0 0 .08-.71v-1-1a4 4 0 0 0-.08-.71.92.92 0 0 0-.19-.46.42.42 0 0 0-.33-.13.41.41 0 0 0-.32.13.92.92 0 0 0-.18.41 3.88 3.88 0 0 0-.09.71v2a3.88 3.88 0 0 0 .09.71.92.92 0 0 0 .18.41.41.41 0 0 0 .33.18zM21.86 17.65a2.78 2.78 0 0 1-.14 1 1.33 1.33 0 0 1-.38.54 1.08 1.08 0 0 1-.52.24 2.64 2.64 0 0 1-.55.06 1.43 1.43 0 0 1-.73-.17 1.05 1.05 0 0 1-.42-.44 2 2 0 0 1-.19-.64 4.86 4.86 0 0 1 0-.77h.95v.42a1.7 1.7 0 0 0 .06.35.44.44 0 0 0 .16.23.5.5 0 0 0 .31.09.39.39 0 0 0 .36-.19 1 1 0 0 0 .12-.51.83.83 0 0 0-.14-.48 2.21 2.21 0 0 0-.36-.4l-.46-.37a2.33 2.33 0 0 1-.46-.43 1.92 1.92 0 0 1-.5-1.36 2.87 2.87 0 0 1 .07-.67 1.58 1.58 0 0 1 .24-.56 1.2 1.2 0 0 1 .46-.37 1.76 1.76 0 0 1 .73-.14 1.22 1.22 0 0 1 1 .45 2.22 2.22 0 0 1 .29 1.41h-.93v-.34a1.32 1.32 0 0 0-.07-.3.5.5 0 0 0-.13-.21.34.34 0 0 0-.23-.08.43.43 0 0 0-.37.17.82.82 0 0 0-.13.49.84.84 0 0 0 .15.5 1.6 1.6 0 0 0 .36.38c.14.11.29.23.46.34a3 3 0 0 1 .46.42 2.08 2.08 0 0 1 .36.56 2.19 2.19 0 0 1 .17.78zM24.79 14.43h.7v1.7h1.07v.95h-1.07v1.69h-.7v-1.69h-1.08v-.95h1.08zM27 14.28a4.45 4.45 0 0 0 .47-.41 2.62 2.62 0 0 0 .39-.52h.85v6h-1v-4.62a3.06 3.06 0 0 1-.36.36c-.13.11-.25.21-.39.31zM30.94 13.27a1.2 1.2 0 0 1 .66.16 1 1 0 0 1 .39.51 3.52 3.52 0 0 1 .19 1V17.66a3.7 3.7 0 0 1-.16 1 1.19 1.19 0 0 1-.39.62 1.22 1.22 0 0 1-1.4 0 1.24 1.24 0 0 1-.38-.62 3.7 3.7 0 0 1-.16-1v-1.28c0-.47 0-1 .05-1.44a3.56 3.56 0 0 1 .18-1 1.05 1.05 0 0 1 .39-.51 1.2 1.2 0 0 1 .63-.16zm0 .88a.31.31 0 0 0-.22.08.66.66 0 0 0-.11.33 4.81 4.81 0 0 0-.05.66v2.24a3.69 3.69 0 0 0 .05.66.66.66 0 0 0 .12.34.25.25 0 0 0 .2.09.26.26 0 0 0 .21-.09.76.76 0 0 0 .12-.34 5 5 0 0 0 .05-.66v-1.11-1.13a3.78 3.78 0 0 0 0-.66.65.65 0 0 0-.12-.33.29.29 0 0 0-.25-.08z"/></g></g></svg>